<?xml version="1.0" encoding="UTF-8" standalone="no"?><!DOCTYPE svg PUBLIC "-//W3C//DTD SVG 1.1//EN" "http://www.w3.org/Graphics/SVG/1.1/DTD/svg11.dtd"><svg width="100%" height="100%" viewBox="0 0 350 120" version="1.1" xmlns="http://www.w3.org/2000/svg" xmlns:xlink="http://www.w3.org/1999/xlink" xml:space="preserve" xmlns:serif="http://www.serif.com/" style="fill-rule:evenodd;clip-rule:evenodd;stroke-linejoin:round;stroke-miterlimit:2;"><rect x="0" y="0" width="350" height="120.184" style="fill:#008ebd;"/><path d="M60.252,76.941c-0.219,-0.364 0.145,-3.273 0.8,-6.547l1.236,-5.892l-4.146,-4.219c-2.255,-2.327 -4.146,-4.728 -4.146,-5.383c0,-0.8 1.527,-1.454 6.037,-2.4l6.038,-1.237l3.419,-5.383c1.891,-2.982 3.782,-5.383 4.146,-5.383c0.364,0 2.328,2.401 4.365,5.383l3.71,5.383l5.601,1.237c3.055,0.727 5.819,1.6 6.11,2.037c0.291,0.436 -0.873,2.4 -2.546,4.364c-5.165,5.965 -4.946,5.383 -3.855,11.566c0.509,3.055 0.654,5.965 0.363,6.474c-0.363,0.655 -2.182,0.291 -7.201,-1.455l-6.62,-2.4l-6.037,2.255c-6.62,2.473 -6.765,2.546 -7.274,1.6Z" style="fill:#fff;fill-rule:nonzero;"/><path d="M111.147,77.119c-0.203,-0.364 0.135,-3.273 0.742,-6.547l1.147,-5.892l-3.847,-4.219c-2.092,-2.328 -3.847,-4.728 -3.847,-5.383c0,-0.8 1.417,-1.455 5.602,-2.4l5.602,-1.237l3.172,-5.383c1.755,-2.982 3.51,-5.383 3.848,-5.383c0.337,0 2.159,2.401 4.049,5.383l3.443,5.383l5.197,1.237c2.834,0.727 5.399,1.6 5.669,2.037c0.27,0.436 -0.81,2.4 -2.362,4.364c-4.792,5.965 -4.59,5.383 -3.577,11.566c0.472,3.055 0.607,5.965 0.337,6.474c-0.337,0.655 -2.025,0.291 -6.682,-1.455l-6.142,-2.4l-5.602,2.255c-6.142,2.473 -6.277,2.546 -6.749,1.6Z" style="fill:#fff;fill-rule:nonzero;"/><path d="M160.097,76.585c-0.218,-0.364 0.145,-3.273 0.8,-6.547l1.237,-5.892l-4.147,-4.219c-2.255,-2.327 -4.146,-4.728 -4.146,-5.383c0,-0.8 1.528,-1.454 6.038,-2.4l6.037,-1.237l3.419,-5.383c1.891,-2.982 3.783,-5.382 4.146,-5.382c0.364,0 2.328,2.4 4.365,5.382l3.71,5.383l5.601,1.237c3.055,0.727 5.819,1.6 6.11,2.037c0.291,0.436 -0.873,2.4 -2.546,4.364c-5.164,5.965 -4.946,5.383 -3.855,11.566c0.509,3.055 0.655,5.965 0.364,6.474c-0.364,0.655 -2.183,0.291 -7.202,-1.455l-6.619,-2.4l-6.038,2.255c-6.619,2.473 -6.765,2.546 -7.274,1.6Z" style="fill:#fff;fill-rule:nonzero;"/><g><path d="M262.789,76.763c-0.218,-0.364 0.146,-3.273 0.8,-6.547l1.237,-5.892l-4.146,-4.219c-2.255,-2.327 -4.147,-4.728 -4.147,-5.383c0,-0.8 1.528,-1.454 6.038,-2.4l6.038,-1.237l3.418,-5.383c1.892,-2.982 3.783,-5.383 4.147,-5.383c0.363,0 2.327,2.401 4.364,5.383l3.71,5.383l5.601,1.237c3.055,0.727 5.82,1.6 6.11,2.037c0.291,0.436 -0.872,2.4 -2.545,4.364c-5.165,5.965 -4.947,5.383 -3.856,11.566c0.509,3.055 0.655,5.965 0.364,6.474c-0.364,0.655 -2.182,0.291 -7.202,-1.455l-6.619,-2.4l-6.038,2.255c-6.619,2.473 -6.765,2.546 -7.274,1.6Z" style="fill:#fff;fill-rule:nonzero;"/><path d="M266.678,72.121c-0.155,-0.259 0.104,-2.329 0.57,-4.658l0.879,-4.192l-2.95,-3.002c-1.604,-1.656 -2.95,-3.364 -2.95,-3.83c0,-0.569 1.087,-1.035 4.296,-1.708l4.296,-0.88l2.432,-3.829c1.346,-2.122 2.691,-3.83 2.95,-3.83c0.259,0 1.656,1.708 3.105,3.83l2.64,3.829l3.985,0.88c2.174,0.518 4.14,1.139 4.347,1.449c0.207,0.311 -0.621,1.708 -1.811,3.106c-3.675,4.243 -3.519,3.829 -2.743,8.229c0.362,2.173 0.466,4.243 0.259,4.606c-0.259,0.465 -1.553,0.207 -5.124,-1.035l-4.71,-1.708l-4.295,1.604c-4.71,1.76 -4.813,1.811 -5.176,1.139Z" style="fill:#008ebd;fill-rule:nonzero;"/></g><g><path d="M211.443,77.297c-0.218,-0.364 0.146,-3.273 0.8,-6.547l1.237,-5.892l-4.146,-4.219c-2.255,-2.328 -4.147,-4.728 -4.147,-5.383c0,-0.8 1.528,-1.455 6.038,-2.4l6.037,-1.237l3.419,-5.383c1.892,-2.982 3.783,-5.383 4.147,-5.383c0.363,0 2.327,2.401 4.364,5.383l3.71,5.383l5.601,1.237c3.055,0.727 5.819,1.6 6.11,2.037c0.291,0.436 -0.873,2.4 -2.546,4.364c-5.164,5.965 -4.946,5.383 -3.855,11.566c0.509,3.055 0.655,5.965 0.364,6.474c-0.364,0.655 -2.182,0.291 -7.202,-1.455l-6.619,-2.4l-6.038,2.255c-6.619,2.473 -6.765,2.546 -7.274,1.6Z" style="fill:#fff;fill-rule:nonzero;"/><path d="M224.903,69.378c0,0 -0.207,-23.186 0.052,-23.186c0.259,0 1.656,1.708 3.105,3.83l2.64,3.829l3.985,0.88c2.173,0.518 4.14,1.139 4.347,1.449c0.207,0.311 -0.621,1.708 -1.811,3.106c-3.675,4.243 -3.52,3.829 -2.743,8.229c0.362,2.173 0.465,4.243 0.258,4.606c-0.258,0.465 -1.552,0.207 -5.123,-1.035l-4.71,-1.708Z" style="fill:#008ebd;fill-rule:nonzero;"/></g></svg>