<?xml version="1.0" encoding="UTF-8" standalone="no"?><!DOCTYPE svg PUBLIC "-//W3C//DTD SVG 1.1//EN" "http://www.w3.org/Graphics/SVG/1.1/DTD/svg11.dtd"><svg width="100%" height="100%" viewBox="0 0 350 120" version="1.1" xmlns="http://www.w3.org/2000/svg" xmlns:xlink="http://www.w3.org/1999/xlink" xml:space="preserve" xmlns:serif="http://www.serif.com/" style="fill-rule:evenodd;clip-rule:evenodd;stroke-miterlimit:2;"><rect x="0" y="0" width="350" height="120.184" style="fill:#008ebd;"/><g><path d="M139.024,79.913c-0.07,-0.117 0.047,-1.053 0.257,-2.105l0.398,-1.895l-1.333,-1.357c-0.726,-0.748 -1.334,-1.52 -1.334,-1.731c0,-0.257 0.492,-0.468 1.942,-0.772l1.941,-0.397l1.1,-1.731c0.608,-0.959 1.216,-1.731 1.333,-1.731c0.117,0 0.748,0.772 1.403,1.731l1.193,1.731l1.801,0.397c0.983,0.234 1.872,0.515 1.965,0.655c0.094,0.141 -0.28,0.772 -0.818,1.404c-1.661,1.918 -1.591,1.731 -1.24,3.719c0.164,0.982 0.21,1.918 0.117,2.082c-0.117,0.21 -0.702,0.093 -2.316,-0.468l-2.128,-0.772l-1.942,0.725c-2.129,0.795 -2.175,0.819 -2.339,0.515Z" style="fill:#fff;fill-rule:nonzero;"/><path d="M154.863,79.913c-0.071,-0.117 0.046,-1.053 0.257,-2.105l0.398,-1.895l-1.334,-1.357c-0.725,-0.748 -1.333,-1.52 -1.333,-1.731c0,-0.257 0.491,-0.468 1.941,-0.772l1.942,-0.397l1.099,-1.731c0.608,-0.959 1.217,-1.731 1.334,-1.731c0.117,0 0.748,0.772 1.403,1.731l1.193,1.731l1.801,0.397c0.983,0.234 1.871,0.515 1.965,0.655c0.094,0.141 -0.281,0.772 -0.819,1.404c-1.66,1.918 -1.59,1.731 -1.239,3.719c0.163,0.982 0.21,1.918 0.117,2.082c-0.117,0.21 -0.702,0.093 -2.316,-0.468l-2.129,-0.772l-1.941,0.725c-2.129,0.795 -2.176,0.819 -2.339,0.515Z" style="fill:#fff;fill-rule:nonzero;"/><path d="M170.701,79.913c-0.07,-0.117 0.047,-1.053 0.258,-2.105l0.397,-1.895l-1.333,-1.357c-0.725,-0.748 -1.333,-1.52 -1.333,-1.731c0,-0.257 0.491,-0.468 1.941,-0.772l1.942,-0.397l1.099,-1.731c0.608,-0.959 1.216,-1.731 1.333,-1.731c0.117,0 0.749,0.772 1.404,1.731l1.193,1.731l1.801,0.397c0.982,0.234 1.871,0.515 1.965,0.655c0.093,0.141 -0.281,0.772 -0.819,1.404c-1.661,1.918 -1.591,1.731 -1.24,3.719c0.164,0.982 0.211,1.918 0.117,2.082c-0.117,0.21 -0.701,0.093 -2.315,-0.468l-2.129,-0.772l-1.942,0.725c-2.128,0.795 -2.175,0.819 -2.339,0.515Z" style="fill:#fff;fill-rule:nonzero;"/><path d="M186.54,79.913c-0.07,-0.117 0.047,-1.053 0.257,-2.105l0.398,-1.895l-1.333,-1.357c-0.725,-0.748 -1.334,-1.52 -1.334,-1.731c0,-0.257 0.492,-0.468 1.942,-0.772l1.941,-0.397l1.1,-1.731c0.608,-0.959 1.216,-1.731 1.333,-1.731c0.117,0 0.748,0.772 1.403,1.731l1.193,1.731l1.802,0.397c0.982,0.234 1.871,0.515 1.964,0.655c0.094,0.141 -0.28,0.772 -0.818,1.404c-1.661,1.918 -1.591,1.731 -1.24,3.719c0.164,0.982 0.21,1.918 0.117,2.082c-0.117,0.21 -0.702,0.093 -2.316,-0.468l-2.128,-0.772l-1.942,0.725c-2.128,0.795 -2.175,0.819 -2.339,0.515Z" style="fill:#fff;fill-rule:nonzero;"/><path d="M202.369,79.629c-0.397,-0.42 -0.397,-0.56 -0.047,-2.055l0.35,-1.588l-1.144,-1.167c-1.798,-1.822 -1.541,-2.662 1.004,-3.153c1.495,-0.28 1.495,-0.28 2.452,-1.774c0.841,-1.285 1.051,-1.495 1.658,-1.495c0.584,0 0.841,0.234 1.705,1.448c0.98,1.401 1.05,1.448 2.615,1.845c2.382,0.607 2.592,1.284 1.004,3.129l-1.027,1.167l0.233,1.682c0.374,2.568 -0.257,2.942 -3.059,1.844l-1.448,-0.583l-1.447,0.583c-1.752,0.678 -2.312,0.701 -2.849,0.117Zm3.035,-1.144l1.215,-0.49l1.821,0.677c1.004,0.373 1.868,0.63 1.938,0.584c0.047,-0.07 0,-0.888 -0.14,-1.822l-0.233,-1.681l1.004,-1.214c0.56,-0.654 1.027,-1.308 1.027,-1.448c0,-0.234 -0.77,-0.491 -2.475,-0.841c-0.56,-0.117 -0.981,-0.49 -1.728,-1.541c-0.537,-0.747 -1.051,-1.378 -1.168,-1.378c-0.116,0 -0.63,0.631 -1.144,1.378c-0.864,1.261 -1.051,1.401 -2.171,1.658c-2.522,0.56 -2.522,0.514 -0.911,2.218l1.167,1.238l-0.35,1.471c-0.42,1.751 -0.327,2.148 0.42,1.868c0.304,-0.117 1.075,-0.42 1.728,-0.677Z" style="fill:#fff;fill-rule:nonzero;stroke:#fff;stroke-width:0.6px;"/></g><g><circle cx="144.145" cy="43.556" r="15.639" style="fill:#fff;"/><g><path d="M143.084,32.796c2.635,-0.622 5.279,1.012 5.902,3.647c0.622,2.635 -1.012,5.28 -3.647,5.902c-2.635,0.622 -5.28,-1.012 -5.902,-3.647c-0.622,-2.635 1.012,-5.279 3.647,-5.902Z" style="fill:#008ebd;"/><path d="M152.341,47.007c-0.092,-1.959 -1.3,-3.619 -2.974,-4.287c-1.391,1.179 -3.188,1.893 -5.155,1.893c-1.955,0 -3.743,-0.705 -5.131,-1.873c-0.078,0.032 -0.157,0.061 -0.233,0.096c-0.03,0.014 -0.059,0.028 -0.088,0.043c-0.484,0.24 -0.923,0.565 -1.298,0.957c-0.023,0.023 -0.045,0.047 -0.067,0.071c-0.753,0.817 -1.235,1.906 -1.292,3.107c-0.004,0.08 -0.004,0.161 -0.004,0.242l0,5.042c0,0.103 0.096,0.08 0.195,0.08l15.909,0c0.099,0 0.14,0.024 0.14,-0.08l0,-5.042c0,-0.081 0.002,-0.169 -0.002,-0.249Z" style="fill:#008ebd;fill-rule:nonzero;"/></g></g><path d="M232.838,76.046l0,-45.658c0,0 0,-14.655 -14.511,-14.655l-86.657,0c0,0 -14.509,0 -14.509,14.655l0,45.658c0,0 0,14.658 14.509,14.658l64.005,0l20.719,13.747l-0.039,-13.747l1.972,0c0,0 14.511,0 14.511,-14.658Z" style="fill:none;fill-rule:nonzero;stroke:#fff;stroke-width:2.01px;stroke-miterlimit:4;"/><g><path d="M167.553,29.078l52.211,0" style="fill:none;stroke:#fff;stroke-width:2px;stroke-linecap:round;stroke-linejoin:round;stroke-miterlimit:1;"/><path d="M167.56,38.759l47.439,0" style="fill:none;stroke:#fff;stroke-width:2px;stroke-linecap:round;stroke-linejoin:round;stroke-miterlimit:1;"/><path d="M167.56,48.441l49.481,0" style="fill:none;stroke:#fff;stroke-width:2px;stroke-linecap:round;stroke-linejoin:round;stroke-miterlimit:1;"/><path d="M167.507,58.122l42.477,0" style="fill:none;stroke:#fff;stroke-width:2px;stroke-linecap:round;stroke-linejoin:round;stroke-miterlimit:1;"/></g></svg>