<?xml version="1.0" encoding="UTF-8" standalone="no"?><!DOCTYPE svg PUBLIC "-//W3C//DTD SVG 1.1//EN" "http://www.w3.org/Graphics/SVG/1.1/DTD/svg11.dtd"><svg width="100%" height="100%" viewBox="0 0 350 120" version="1.1" xmlns="http://www.w3.org/2000/svg" xmlns:xlink="http://www.w3.org/1999/xlink" xml:space="preserve" xmlns:serif="http://www.serif.com/" style="fill-rule:evenodd;clip-rule:evenodd;stroke-miterlimit:2;"><rect x="0" y="0" width="350" height="120.184" style="fill:#008ebd;"/><g><path d="M139.551,102.268c-0.07,-0.117 0.047,-1.053 0.257,-2.105l0.398,-1.895l-1.333,-1.357c-0.725,-0.748 -1.334,-1.52 -1.334,-1.731c0,-0.257 0.492,-0.468 1.942,-0.772l1.941,-0.397l1.1,-1.731c0.608,-0.959 1.216,-1.731 1.333,-1.731c0.117,0 0.749,0.772 1.404,1.731l1.193,1.731l1.801,0.397c0.982,0.234 1.871,0.515 1.965,0.655c0.093,0.141 -0.281,0.772 -0.819,1.404c-1.661,1.918 -1.591,1.731 -1.24,3.719c0.164,0.982 0.211,1.918 0.117,2.082c-0.117,0.21 -0.702,0.093 -2.316,-0.468l-2.128,-0.772l-1.942,0.725c-2.128,0.795 -2.175,0.819 -2.339,0.515Z" style="fill:#fff;fill-rule:nonzero;"/><path d="M155.39,102.268c-0.07,-0.117 0.047,-1.053 0.257,-2.105l0.398,-1.895l-1.334,-1.357c-0.725,-0.748 -1.333,-1.52 -1.333,-1.731c0,-0.257 0.491,-0.468 1.942,-0.772l1.941,-0.397l1.099,-1.731c0.609,-0.959 1.217,-1.731 1.334,-1.731c0.117,0 0.748,0.772 1.403,1.731l1.193,1.731l1.801,0.397c0.983,0.234 1.872,0.515 1.965,0.655c0.094,0.141 -0.281,0.772 -0.819,1.404c-1.66,1.918 -1.59,1.731 -1.239,3.719c0.164,0.982 0.21,1.918 0.117,2.082c-0.117,0.21 -0.702,0.093 -2.316,-0.468l-2.129,-0.772l-1.941,0.725c-2.129,0.795 -2.175,0.819 -2.339,0.515Z" style="fill:#fff;fill-rule:nonzero;"/><path d="M171.228,102.268c-0.07,-0.117 0.047,-1.053 0.258,-2.105l0.397,-1.895l-1.333,-1.357c-0.725,-0.748 -1.333,-1.52 -1.333,-1.731c0,-0.257 0.491,-0.468 1.941,-0.772l1.942,-0.397l1.099,-1.731c0.608,-0.959 1.216,-1.731 1.333,-1.731c0.117,0 0.749,0.772 1.404,1.731l1.193,1.731l1.801,0.397c0.982,0.234 1.871,0.515 1.965,0.655c0.093,0.141 -0.281,0.772 -0.819,1.404c-1.661,1.918 -1.59,1.731 -1.24,3.719c0.164,0.982 0.211,1.918 0.117,2.082c-0.117,0.21 -0.701,0.093 -2.315,-0.468l-2.129,-0.772l-1.941,0.725c-2.129,0.795 -2.176,0.819 -2.34,0.515Z" style="fill:#fff;fill-rule:nonzero;"/><path d="M187.067,102.268c-0.07,-0.117 0.047,-1.053 0.257,-2.105l0.398,-1.895l-1.333,-1.357c-0.725,-0.748 -1.334,-1.52 -1.334,-1.731c0,-0.257 0.492,-0.468 1.942,-0.772l1.941,-0.397l1.1,-1.731c0.608,-0.959 1.216,-1.731 1.333,-1.731c0.117,0 0.749,0.772 1.404,1.731l1.193,1.731l1.801,0.397c0.982,0.234 1.871,0.515 1.965,0.655c0.093,0.141 -0.281,0.772 -0.819,1.404c-1.661,1.918 -1.591,1.731 -1.24,3.719c0.164,0.982 0.211,1.918 0.117,2.082c-0.117,0.21 -0.702,0.093 -2.316,-0.468l-2.128,-0.772l-1.942,0.725c-2.128,0.795 -2.175,0.819 -2.339,0.515Z" style="fill:#fff;fill-rule:nonzero;"/><path d="M202.896,101.984c-0.397,-0.42 -0.397,-0.56 -0.047,-2.055l0.35,-1.588l-1.144,-1.167c-1.798,-1.822 -1.541,-2.662 1.004,-3.153c1.495,-0.28 1.495,-0.28 2.452,-1.774c0.841,-1.285 1.051,-1.495 1.658,-1.495c0.584,0 0.841,0.234 1.705,1.448c0.981,1.401 1.051,1.448 2.615,1.845c2.382,0.607 2.592,1.284 1.004,3.129l-1.027,1.167l0.233,1.682c0.374,2.568 -0.257,2.942 -3.059,1.844l-1.447,-0.583l-1.448,0.583c-1.752,0.678 -2.312,0.701 -2.849,0.117Zm3.036,-1.144l1.214,-0.49l1.821,0.677c1.004,0.373 1.868,0.63 1.938,0.584c0.047,-0.071 0,-0.888 -0.14,-1.822l-0.233,-1.681l1.004,-1.214c0.56,-0.654 1.027,-1.308 1.027,-1.448c0,-0.234 -0.77,-0.491 -2.475,-0.841c-0.56,-0.117 -0.981,-0.49 -1.728,-1.541c-0.537,-0.747 -1.051,-1.378 -1.167,-1.378c-0.117,0 -0.631,0.631 -1.145,1.378c-0.864,1.261 -1.05,1.401 -2.171,1.658c-2.522,0.56 -2.522,0.514 -0.911,2.218l1.168,1.238l-0.351,1.471c-0.42,1.751 -0.327,2.148 0.421,1.868c0.303,-0.117 1.074,-0.42 1.728,-0.677Z" style="fill:#fff;fill-rule:nonzero;stroke:#fff;stroke-width:0.6px;"/></g><g><path d="M203.235,47.241c-3.261,-0.938 -4.838,-5.357 -3.109,-10.762c2.244,-4.826 6.128,-7.393 10.444,-6.791c5.338,1.066 6.678,7.94 4.249,12.526" style="fill:#3c5862;fill-opacity:0;stroke:#fff;stroke-width:2px;stroke-linecap:round;stroke-linejoin:round;stroke-miterlimit:5;"/><path d="M215.195,51.603c0.385,1.36 0.24,2.888 -0.525,4.248l-14.693,26.117c-1.554,2.762 -5.082,3.786 -7.872,2.285l-15.168,-8.16c-2.79,-1.501 -3.794,-4.963 -2.24,-7.725l14.693,-26.117c0.765,-1.359 2.008,-2.298 3.422,-2.721l16.299,-3.024l6.084,15.097Z" style="fill:#3c5862;fill-opacity:0;stroke:#fff;stroke-width:2px;stroke-linecap:round;stroke-linejoin:round;stroke-miterlimit:1.5;"/></g><g><path d="M146.765,47.241c3.261,-0.938 4.838,-5.357 3.109,-10.762c-2.244,-4.826 -6.128,-7.393 -10.444,-6.791c-5.338,1.066 -6.678,7.94 -4.249,12.526" style="fill:#3c5862;fill-opacity:0;stroke:#fff;stroke-width:2px;stroke-linecap:round;stroke-linejoin:round;stroke-miterlimit:5;"/><path d="M134.805,51.603c-0.385,1.36 -0.24,2.888 0.525,4.248l14.693,26.117c1.554,2.762 5.082,3.786 7.872,2.285l15.168,-8.16c2.79,-1.501 3.794,-4.963 2.24,-7.725l-14.693,-26.117c-0.765,-1.359 -2.008,-2.298 -3.422,-2.721l-16.299,-3.024l-6.084,15.097Z" style="fill:#3c5862;fill-opacity:0;stroke:#fff;stroke-width:2px;stroke-linecap:round;stroke-linejoin:round;stroke-miterlimit:1.5;"/></g><g><path d="M188.644,32.962c0.981,1.017 1.576,2.433 1.544,3.993l-0.616,29.96c-0.065,3.168 -2.69,5.737 -5.859,5.732l-17.223,-0.028c-3.169,-0.005 -5.688,-2.582 -5.623,-5.751l0.615,-29.96c0.032,-1.56 0.684,-2.974 1.73,-4.014l12.939,-10.365l12.493,10.433Z" style="fill:#008ebd;stroke:#fff;stroke-width:2px;stroke-linecap:round;stroke-linejoin:round;stroke-miterlimit:1.5;"/><path d="M176.042,34.767c-3.318,0.713 -6.795,-2.437 -7.824,-8.018c-0.301,-5.313 1.909,-9.41 5.998,-10.918c5.208,-1.582 9.637,3.843 9.662,9.034" style="fill:#3c5862;fill-opacity:0;stroke:#fff;stroke-width:2px;stroke-linecap:round;stroke-linejoin:round;stroke-miterlimit:5;"/></g></svg>