<?xml version="1.0" encoding="UTF-8" standalone="no"?><!DOCTYPE svg PUBLIC "-//W3C//DTD SVG 1.1//EN" "http://www.w3.org/Graphics/SVG/1.1/DTD/svg11.dtd"><svg width="100%" height="100%" viewBox="0 0 350 120" version="1.1" xmlns="http://www.w3.org/2000/svg" xmlns:xlink="http://www.w3.org/1999/xlink" xml:space="preserve" xmlns:serif="http://www.serif.com/" style="fill-rule:evenodd;clip-rule:evenodd;stroke-linejoin:round;stroke-miterlimit:2;"><rect x="0" y="0" width="350" height="120.184" style="fill:#008ebd;"/><path d="M169.986,93.094l0,-12.884l-11.243,-13.613c-6.168,-7.506 -11.243,-13.735 -11.243,-13.856c0,-0.152 12.367,-0.244 27.5,-0.244c15.133,0 27.5,0.092 27.5,0.244c0,0.121 -5.075,6.35 -11.243,13.825l-11.243,13.644l-0.061,10.514l-0.091,10.544l-4.71,2.34c-2.583,1.276 -4.801,2.34 -4.923,2.37c-0.152,0 -0.243,-5.804 -0.243,-12.884Z" style="fill:#fff;fill-rule:nonzero;"/><path d="M101.503,37.592c-0.14,-0.233 0.093,-2.096 0.513,-4.193l0.791,-3.774l-2.655,-2.703c-1.445,-1.49 -2.656,-3.028 -2.656,-3.447c0,-0.513 0.978,-0.932 3.867,-1.538l3.867,-0.792l2.19,-3.448c1.211,-1.91 2.423,-3.448 2.656,-3.448c0.233,0 1.491,1.538 2.796,3.448l2.376,3.448l3.587,0.792c1.957,0.466 3.727,1.025 3.914,1.305c0.186,0.279 -0.559,1.537 -1.631,2.795c-3.308,3.821 -3.168,3.448 -2.469,7.408c0.326,1.957 0.419,3.821 0.232,4.147c-0.232,0.419 -1.397,0.186 -4.612,-0.932l-4.24,-1.537l-3.867,1.444c-4.24,1.584 -4.333,1.631 -4.659,1.025Z" style="fill:#fff;fill-rule:nonzero;"/><path d="M134.102,37.706c-0.13,-0.233 0.086,-2.096 0.475,-4.193l0.735,-3.774l-2.464,-2.703c-1.34,-1.491 -2.464,-3.028 -2.464,-3.447c0,-0.513 0.907,-0.932 3.588,-1.538l3.588,-0.792l2.032,-3.448c1.124,-1.91 2.248,-3.448 2.464,-3.448c0.216,0 1.383,1.538 2.594,3.448l2.205,3.448l3.329,0.792c1.815,0.466 3.458,1.025 3.631,1.305c0.173,0.279 -0.519,1.537 -1.513,2.795c-3.07,3.821 -2.94,3.448 -2.291,7.408c0.302,1.957 0.389,3.821 0.216,4.147c-0.216,0.419 -1.297,0.186 -4.28,-0.932l-3.934,-1.537l-3.588,1.444c-3.934,1.584 -4.021,1.631 -4.323,1.025Z" style="fill:#fff;fill-rule:nonzero;"/><path d="M165.455,37.364c-0.14,-0.233 0.092,-2.096 0.512,-4.193l0.792,-3.774l-2.656,-2.703c-1.444,-1.49 -2.655,-3.028 -2.655,-3.448c0,-0.512 0.978,-0.931 3.867,-1.537l3.867,-0.792l2.19,-3.448c1.211,-1.91 2.423,-3.447 2.655,-3.447c0.233,0 1.491,1.537 2.796,3.447l2.376,3.448l3.588,0.792c1.957,0.466 3.727,1.025 3.913,1.305c0.187,0.279 -0.559,1.537 -1.63,2.795c-3.308,3.821 -3.168,3.448 -2.47,7.408c0.326,1.957 0.42,3.821 0.234,4.147c-0.234,0.419 -1.399,0.186 -4.613,-0.932l-4.24,-1.537l-3.867,1.444c-4.24,1.584 -4.333,1.631 -4.659,1.025Z" style="fill:#fff;fill-rule:nonzero;"/><path d="M231.23,37.478c-0.14,-0.233 0.093,-2.096 0.512,-4.193l0.792,-3.774l-2.655,-2.703c-1.445,-1.49 -2.656,-3.028 -2.656,-3.448c0,-0.512 0.978,-0.931 3.867,-1.537l3.867,-0.792l2.19,-3.448c1.211,-1.91 2.423,-3.448 2.656,-3.448c0.232,0 1.49,1.538 2.795,3.448l2.376,3.448l3.588,0.792c1.956,0.466 3.727,1.025 3.913,1.305c0.187,0.279 -0.558,1.537 -1.63,2.795c-3.308,3.821 -3.168,3.448 -2.47,7.408c0.326,1.957 0.42,3.821 0.233,4.147c-0.233,0.419 -1.397,0.186 -4.612,-0.932l-4.24,-1.537l-3.867,1.444c-4.24,1.584 -4.333,1.631 -4.659,1.025Z" style="fill:#fff;fill-rule:nonzero;"/><path d="M233.721,34.505c-0.1,-0.166 0.066,-1.492 0.365,-2.984l0.563,-2.685l-1.89,-1.923c-1.027,-1.06 -1.889,-2.154 -1.889,-2.453c0,-0.364 0.696,-0.663 2.751,-1.094l2.752,-0.563l1.558,-2.453c0.862,-1.359 1.723,-2.453 1.889,-2.453c0.166,0 1.061,1.094 1.989,2.453l1.691,2.453l2.552,0.563c1.393,0.332 2.652,0.73 2.785,0.928c0.132,0.2 -0.398,1.094 -1.16,1.99c-2.354,2.717 -2.254,2.452 -1.757,5.271c0.231,1.391 0.298,2.717 0.166,2.95c-0.166,0.298 -0.995,0.132 -3.282,-0.663l-3.017,-1.094l-2.751,1.027c-3.017,1.127 -3.083,1.16 -3.315,0.73Z" style="fill:#008ebd;fill-rule:nonzero;"/><path d="M198.342,37.82c-0.14,-0.233 0.094,-2.096 0.513,-4.193l0.792,-3.774l-2.656,-2.703c-1.444,-1.491 -2.656,-3.028 -2.656,-3.447c0,-0.513 0.979,-0.932 3.867,-1.538l3.867,-0.792l2.19,-3.448c1.212,-1.91 2.423,-3.448 2.656,-3.448c0.233,0 1.491,1.538 2.795,3.448l2.377,3.448l3.587,0.792c1.957,0.466 3.727,1.025 3.914,1.305c0.186,0.279 -0.559,1.537 -1.631,2.795c-3.308,3.821 -3.168,3.448 -2.469,7.408c0.326,1.957 0.419,3.821 0.233,4.147c-0.233,0.419 -1.398,0.186 -4.613,-0.932l-4.239,-1.537l-3.868,1.444c-4.239,1.584 -4.333,1.631 -4.659,1.025Z" style="fill:#fff;fill-rule:nonzero;"/><path d="M206.963,32.748c0,0 -0.132,-14.851 0.034,-14.851c0.166,0 1.06,1.094 1.988,2.453l1.691,2.453l2.553,0.563c1.392,0.332 2.651,0.73 2.784,0.928c0.133,0.2 -0.398,1.094 -1.16,1.99c-2.354,2.717 -2.254,2.452 -1.757,5.271c0.232,1.391 0.298,2.717 0.165,2.95c-0.165,0.298 -0.994,0.132 -3.281,-0.663l-3.017,-1.094Z" style="fill:#008ebd;fill-rule:nonzero;"/></svg>